<svg width="864" height="864" viewBox="0 0 864 864" fill="none" xmlns="http://www.w3.org/2000/svg">
<circle cx="432" cy="432" r="432" fill="white"/>
<path d="M392 106.009C416.752 91.7185 447.248 91.7185 472 106.009L694.316 234.364C719.068 248.654 734.316 275.064 734.316 303.646V560.354C734.316 588.936 719.068 615.346 694.316 629.636L472 757.991C447.248 772.281 416.752 772.281 392 757.991L169.684 629.636C144.931 615.346 129.684 588.936 129.684 560.354V303.646C129.684 275.064 144.931 248.654 169.684 234.364L392 106.009Z" fill="#0F172A"/>
<path d="M400.959 644.507C396.266 646.143 393.787 651.274 395.423 655.968C397.058 660.661 402.189 663.14 406.883 661.504L400.959 644.507ZM425.424 561.979L429.394 553.901L429.394 553.901L425.424 561.979ZM416.017 483.17L413.442 474.546L413.309 474.586L413.178 474.63L416.017 483.17ZM406.883 661.504C417.429 657.829 429.38 652.577 440.146 646.049C450.76 639.612 460.996 631.472 467.215 621.726C473.743 611.495 475.911 599.197 469.269 586.539C463.079 574.742 449.887 563.972 429.394 553.901L421.455 570.056C440.743 579.535 449.793 588.162 453.33 594.902C456.415 600.781 455.794 606.162 452.041 612.044C447.978 618.411 440.441 624.819 430.812 630.658C421.334 636.405 410.573 641.157 400.959 644.507L406.883 661.504ZM429.394 553.901C409.998 544.37 398.895 535.865 393.114 528.85C387.582 522.137 387.349 517.425 388.289 514.106C389.411 510.145 392.881 505.783 398.857 501.526C404.688 497.373 411.962 494.003 418.856 491.711L413.178 474.63C405.065 477.327 396.066 481.415 388.414 486.865C380.909 492.211 373.69 499.596 370.97 509.202C368.068 519.451 370.842 530.127 379.223 540.297C387.355 550.165 401.07 560.038 421.455 570.056L429.394 553.901ZM418.592 491.794C441.752 484.878 473.844 471.583 492.228 453.792C501.473 444.845 508.728 433.291 507.251 419.76C505.783 406.306 496.035 394.244 479.398 383.385L469.559 398.458C484.371 408.126 488.75 416.152 489.357 421.712C489.955 427.194 487.231 433.579 479.71 440.857C464.563 455.516 435.975 467.818 413.442 474.546L418.592 491.794ZM479.398 383.385C417.475 342.967 352.194 276.769 327.332 248.717L313.861 260.656C339.173 289.215 405.688 356.768 469.559 398.458L479.398 383.385Z" fill="white"/>
<path d="M457.057 644.507C461.75 646.143 464.229 651.274 462.593 655.968C460.958 660.661 455.827 663.14 451.133 661.504L457.057 644.507ZM432.592 561.979L428.622 553.901L428.622 553.901L432.592 561.979ZM441.999 483.17L444.574 474.546L444.707 474.586L444.839 474.63L441.999 483.17ZM451.133 661.504C440.587 657.829 428.636 652.577 417.871 646.049C407.256 639.612 397.02 631.472 390.801 621.726C384.273 611.495 382.105 599.197 388.747 586.539C394.937 574.742 408.129 563.972 428.622 553.901L436.561 570.056C417.274 579.535 408.223 588.162 404.686 594.902C401.601 600.781 402.222 606.162 405.975 612.044C410.038 618.411 417.575 624.819 427.204 630.658C436.682 636.405 447.443 641.157 457.057 644.507L451.133 661.504ZM428.622 553.901C448.018 544.37 459.121 535.865 464.902 528.85C470.434 522.137 470.667 517.425 469.727 514.106C468.605 510.145 465.135 505.783 459.159 501.526C453.328 497.373 446.054 494.003 439.16 491.711L444.839 474.63C452.952 477.327 461.95 481.415 469.602 486.865C477.107 492.211 484.326 499.596 487.046 509.202C489.948 519.451 487.174 530.127 478.793 540.297C470.661 550.165 456.946 560.038 436.561 570.056L428.622 553.901ZM439.424 491.794C416.264 484.878 384.172 471.583 365.788 453.792C356.543 444.845 349.289 433.291 350.765 419.76C352.233 406.306 361.982 394.244 378.618 383.385L388.457 398.458C373.645 408.126 369.266 416.152 368.659 421.712C368.061 427.194 370.785 433.579 378.306 440.857C393.453 455.516 422.041 467.818 444.574 474.546L439.424 491.794ZM378.618 383.385C440.541 342.967 505.822 276.769 530.684 248.717L544.155 260.656C518.843 289.215 452.328 356.768 388.457 398.458L378.618 383.385Z" fill="white"/>
<path d="M396.044 234.897C425.44 270.387 425.35 331.405 421.07 361.69C395.424 382.932 332.567 347.31 303.172 311.82C273.777 276.33 270.738 230.34 296.384 209.099C322.03 187.857 366.649 199.407 396.044 234.897Z" fill="white"/>
<path d="M472.7 234.439C438.179 264.966 428.849 325.267 428.403 355.85C450.463 380.795 518.066 355.302 552.586 324.775C587.107 294.247 597.209 249.277 575.149 224.332C553.088 199.386 507.221 203.911 472.7 234.439Z" fill="white"/>
<path d="M409.519 331.427H448.498L429.009 694.421H428.545L409.519 331.427Z" fill="white"/>
<ellipse cx="430" cy="218.5" rx="29" ry="29.5" fill="white"/>
</svg>
